<?xml version="1.0" encoding="UTF-8"?>
<svg xmlns="http://www.w3.org/2000/svg" xmlns:xlink="http://www.w3.org/1999/xlink" width="20px" height="20px" viewBox="0 0 20 20" version="1.1">
<g id="surface1">
<path style=" stroke:none;fill-rule:nonzero;fill:rgb(0%,0%,0%);fill-opacity:1;" d="M 10.007812 8.242188 L 16.613281 1.652344 C 17.105469 1.164062 17.894531 1.167969 18.382812 1.65625 C 18.871094 2.144531 18.871094 2.933594 18.378906 3.421875 L 11.777344 10.007812 L 18.378906 16.601562 C 18.867188 17.089844 18.867188 17.882812 18.378906 18.371094 C 17.890625 18.859375 17.097656 18.859375 16.609375 18.371094 L 10.007812 11.773438 L 3.402344 18.359375 C 2.914062 18.847656 2.121094 18.847656 1.636719 18.359375 C 1.148438 17.871094 1.148438 17.078125 1.636719 16.589844 L 8.238281 10.003906 L 1.644531 3.414062 C 1.15625 2.925781 1.15625 2.136719 1.644531 1.648438 C 2.128906 1.160156 2.921875 1.160156 3.410156 1.648438 Z M 10.007812 8.242188 "/>
</g>
</svg>
